Coordinates
version=1
nRows=9
nColumns=63
inDegrees=yes

Units are S.I. units (second, meters, Newtons, ...)
If the header above contains a line with 'inDegrees', this indicates whether rotational values are in degrees (yes) or radians (no).

endheader
time	pelvis_tilt	pelvis_list	pelvis_rotation	pelvis_tx	pelvis_ty	pelvis_tz	hip_flexion_r	hip_adduction_r	hip_rotation_r	knee_angle_r	knee_angle_r_beta	ankle_angle_r	subtalar_angle_r	mtp_angle_r	hip_flexion_l	hip_adduction_l	hip_rotation_l	knee_angle_l	knee_angle_l_beta	ankle_angle_l	subtalar_angle_l	mtp_angle_l	L5_S1_Flex_Ext	L5_S1_Lat_Bending	L5_S1_axial_rotation	L4_L5_Flex_Ext	L4_L5_Lat_Bending	L4_L5_axial_rotation	L3_L4_Flex_Ext	L3_L4_Lat_Bending	L3_L4_axial_rotation	L2_L3_Flex_Ext	L2_L3_Lat_Bending	L2_L3_axial_rotation	L1_L2_Flex_Ext	L1_L2_Lat_Bending	L1_L2_axial_rotation	L1_T12_Flex_Ext	L1_T12_Lat_Bending	L1_T12_axial_rotation	Abs_r3	Abs_r2	Abs_r1	Abs_t1	Abs_t2	neck_flexion	neck_bending	neck_rotation	arm_flex_r	arm_add_r	arm_rot_r	elbow_flex_r	pro_sup_r	wrist_flex_r	wrist_dev_r	arm_flex_l	arm_add_l	arm_rot_l	elbow_flex_l	pro_sup_l	wrist_flex_l	wrist_dev_l
      0.00000000	      6.28227236	     -2.43191956	     93.30532673	      0.23643651	      0.95574956	      0.48106998	      4.61768009	     -2.72245086	     -9.66439945	     23.30508766	      0.40675051	     38.54225939	      8.59849089	      0.00000000	      0.71054763	     -2.46111511	      2.34768922	     15.19227180	      0.26515516	     42.16260628	      8.13301671	      0.00000000	     -0.40066307	      1.15108789	      0.28227849	     -0.74407138	      1.53094689	      0.29992089	     -0.65824935	      2.79875509	      0.29992089	     -0.45791782	      2.79875509	      0.24699368	     -0.37205572	      2.34729842	      0.22935127	     -0.22893888	      1.78303514	      0.21170887	     -2.86189622	     13.02133638	      1.56994827	      0.00000000	      0.00000000	     12.23172379	    -15.25360570	     -0.78447102	      9.25264325	    -15.64254405	    160.16249665	      1.64288549	      4.03452227	    -10.41868924	     -7.26802865	     21.13763838	      0.18553053	     46.50982739	    149.87165598	     89.39970007	     11.94077689	     -8.62061859
      0.01666667	      6.65842813	     -3.23862782	     95.28872709	      0.23471534	      0.95478317	      0.48232629	      5.38640917	     -2.58288765	    -12.38400700	     22.84105883	      0.39865168	     39.69893064	      8.71980810	      0.00000000	      2.27031787	     -2.88877057	      3.57757022	     15.86976824	      0.27697971	     42.66779332	      9.10713884	      0.00000000	     -0.34515535	      1.18111764	     -0.08789365	     -0.64098800	      1.57088647	     -0.09338700	     -0.56705572	      2.87176944	     -0.09338700	     -0.39447805	      2.87176944	     -0.07690694	     -0.32051126	      2.40853510	     -0.07141359	     -0.19722177	      1.82955123	     -0.06592024	     -2.46541014	     13.36103900	     -0.48883812	      0.00000000	      0.00000000	     12.58707914	    -13.90974899	     -0.40820917	     10.21219949	    -15.99826377	    162.81480601	      1.92563204	      3.88305712	    -10.96001640	     -7.25646495	     20.85988905	      1.02910219	     46.52349593	    149.85857543	     89.42875641	     11.58445550	     -6.74748386
      0.03333333	      6.71453819	     -3.60232916	     95.49198005	      0.23519545	      0.95433454	      0.48227762	      5.84471453	     -2.51023018	    -12.76618549	     22.58236155	      0.39413656	     40.59544849	      8.37883562	      0.00000000	      2.57792947	     -2.96468680	      3.69907260	     15.65077078	      0.27315748	     42.63358906	      9.17256665	      0.00000000	     -0.34366180	      1.18332957	     -0.12438778	     -0.63821433	      1.57382832	     -0.13216202	     -0.56460197	      2.87714750	     -0.13216202	     -0.39277107	      2.87714750	     -0.10883931	     -0.31912435	      2.41304565	     -0.10106507	     -0.19636835	      1.83297750	     -0.09329084	     -2.45474186	     13.38606071	     -0.69180753	      0.00000000	      0.00000000	     12.89439774	    -13.59371325	     -0.44327003	     10.60679623	    -16.26546416	    162.82317742	      2.14621640	      3.84357634	    -11.05556866	     -7.21831161	     20.56553230	      1.59337889	     46.28979974	    149.83826631	     89.43752770	     11.33065240	     -6.42016599
      0.05000000	      7.16925718	     -4.11194198	     97.44307775	      0.23325907	      0.95332212	      0.48263048	      6.14246961	     -2.26359994	    -14.98893165	     22.20668677	      0.38757980	     40.87460067	      8.37262306	      0.00000000	      3.67711697	     -3.29907334	      5.65593344	     16.11830190	      0.28131744	     42.71729077	      9.23845006	      0.00000000	     -0.27228764	      1.23052982	     -0.55785278	     -0.50566538	      1.63660466	     -0.59271858	     -0.44734136	      2.99191021	     -0.59271858	     -0.31119754	      2.99191021	     -0.48812118	     -0.25284630	      2.50929641	     -0.45325538	     -0.15558516	      1.90609069	     -0.41838958	     -1.94492339	     13.91999945	     -3.10260980	      0.00000000	      0.00000000	     13.45448241	    -12.75759841	      0.43471557	     11.04014723	    -16.49794710	    162.55400426	      2.62769383	      3.57808636	    -11.74345060	     -7.17866031	     19.99325827	      2.08780874	     45.99213342	    149.83602907	     89.44360074	     11.45353608	     -5.28784811
      0.06666667	      7.26864365	     -4.21632345	     97.65337296	      0.23327577	      0.95296648	      0.48160390	      6.13613381	     -2.09157468	    -15.00058645	     21.95811922	      0.38324148	     41.03572860	      7.88880835	      0.00000000	      3.47252849	     -3.28820638	      6.85468563	     15.55023927	      0.27140287	     42.21285810	      8.03856276	      0.00000000	     -0.25278974	      1.24787991	     -0.64550730	     -0.46945583	      1.65968029	     -0.68585151	     -0.41530827	      3.03409522	     -0.68585151	     -0.28891340	      3.03409522	     -0.56481889	     -0.23474056	      2.54467672	     -0.52447468	     -0.14444406	      1.93296599	     -0.48413048	     -1.80565187	     14.11626716	     -3.59011795	      0.00000000	      0.00000000	     13.77827239	    -12.87261733	      0.71575111	     11.00956420	    -16.72163148	    159.68465244	      3.15357779	      4.30034373	    -12.22674883	     -7.17104382	     19.28160237	      2.47003331	     45.06924699	    149.83022291	     89.42989397	     12.88745293	     -5.02094008
      0.08333333	      7.20685832	     -4.18910779	     97.78735615	      0.23332323	      0.95255126	      0.48050715	      5.92861916	     -2.24080343	    -15.81067037	     21.83561121	      0.38110331	     41.35174963	      8.71283337	      0.00000000	      3.18795174	     -3.07082762	      8.39815045	     15.20822999	      0.26543369	     41.70229582	      6.24333954	      0.00000000	     -0.24823543	      1.24805690	     -0.73868612	     -0.46099801	      1.65991567	     -0.78485400	     -0.40782598	      3.03452554	     -0.78485400	     -0.28370827	      3.03452554	     -0.64635036	     -0.23051142	      2.54503762	     -0.60018247	     -0.14184172	      1.93324013	     -0.55401459	     -1.77312083	     14.11826921	     -4.10835060	      0.00000000	      0.00000000	     14.31818688	    -12.91483385	      1.18295469	     10.87334203	    -16.78701408	    158.88459284	      3.33771480	      3.42477432	    -12.43098960	     -6.83282944	     18.83876986	      2.40847898	     45.13016952	    149.82102398	     89.42772674	     11.74745158	     -6.13623502
      0.10000000	      7.22887418	     -4.05675329	     97.66510236	      0.23382692	      0.95229413	      0.47944643	      5.69710881	     -2.15904059	    -15.76244559	     21.77837843	      0.38010441	     41.39532308	      8.73222670	      0.00000000	      2.86805483	     -3.14535795	      8.35826121	     15.01809022	      0.26211512	     41.58532119	      6.14061660	      0.00000000	     -0.24393520	      1.25281887	     -0.77071927	     -0.45301207	      1.66624910	     -0.81888923	     -0.40076115	      3.04610381	     -0.81888923	     -0.27879354	      3.04610381	     -0.67437936	     -0.22651823	      2.55474825	     -0.62620941	     -0.13938458	      1.94061644	     -0.57803945	     -1.74240477	     14.17213767	     -4.28650937	      0.00000000	      0.00000000	     14.60146884	    -13.07728124	      1.26059773	     10.61922426	    -16.80602730	    158.48431841	      3.32471297	      3.11183984	    -12.59565639	     -6.54075825	     18.27579923	      2.40088849	     44.70241895	    149.82430970	     89.41098383	     11.71369367	     -6.39609996
      0.11666667	      7.08083972	     -3.58331982	     96.83436696	      0.23467276	      0.95284623	      0.47700548	      4.98740393	     -2.08177596	    -14.68180319	     21.50221127	      0.37528438	     41.11698956	      8.40708017	      0.00000000	      1.35543593	     -2.87019516	      9.95089814	     13.56619239	      0.23677472	     40.62141317	      3.20562349	      0.00000000	     -0.26465167	      1.25626095	     -0.64916215	     -0.49148461	      1.67082707	     -0.68973478	     -0.43479622	      3.05447288	     -0.68973478	     -0.30247039	      3.05447288	     -0.56801688	     -0.24575554	      2.56176733	     -0.52744425	     -0.15122196	      1.94594821	     -0.48687161	     -1.89038038	     14.21107513	     -3.61044512	      0.00000000	      0.00000000	     14.43463511	    -13.58258229	      1.72609684	     10.17973637	    -17.01162174	    155.01401603	      3.82613419	      3.45314559	    -12.59680586	     -6.43661841	     17.63065154	      2.33976786	     44.13986157	    149.81882260	     89.39649353	     12.42707846	     -7.38113953
      0.13333333	      7.00231580	     -3.15057909	     96.01260473	      0.23568788	      0.95334608	      0.47481921	      4.36927227	     -2.03409525	    -13.96863027	     21.31968320	      0.37209867	     40.89414263	      8.54307722	      0.00000000	      0.14368610	     -2.83980406	      9.82504299	     12.51485936	      0.21842550	     40.19997738	      2.38946905	      0.00000000	     -0.28157264	      1.25995665	     -0.52756760	     -0.52290856	      1.67574235	     -0.56054058	     -0.46259570	      3.06345860	     -0.56054058	     -0.32180937	      3.06345860	     -0.46162165	     -0.26146836	      2.56930360	     -0.42864868	     -0.16089061	      1.95167285	     -0.39567570	     -2.01124523	     14.25288163	     -2.93417272	      0.00000000	      0.00000000	     14.30115674	    -13.80643187	      2.15150086	      9.83202740	    -17.11527876	    154.61484853	      3.93383098	      3.32779215	    -12.31948803	     -6.09481148	     17.21437784	      2.13979468	     43.84801927	    149.82135709	     89.38501878	     12.32350176	     -8.24638129
